<mxfile host="Electron" modified="2023-06-27T19:52:09.655Z" agent="Mozilla/5.0 (Windows NT 10.0; Win64; x64) AppleWebKit/537.36 (KHTML, like Gecko) draw.io/21.1.2 Chrome/106.0.5249.199 Electron/21.4.3 Safari/537.36" etag="vV4yfZHTufp8VNbo1n7Y" version="21.1.2" type="device">
  <diagram name="Page-1" id="asZA_H9dcr1Hdg0wqSvO">
    <mxGraphModel dx="517" dy="985" grid="0" gridSize="10" guides="1" tooltips="1" connect="1" arrows="1" fold="1" page="0" pageScale="1" pageWidth="850" pageHeight="1100" math="0" shadow="0">
      <root>
        <mxCell id="0" />
        <mxCell id="P3zlHuA92NW-nEsySU8p-326" value="Groups" style="locked=1;" parent="0" />
        <mxCell id="P3zlHuA92NW-nEsySU8p-206" value="Private subnet" style="points=[[0,0],[0.25,0],[0.5,0],[0.75,0],[1,0],[1,0.25],[1,0.5],[1,0.75],[1,1],[0.75,1],[0.5,1],[0.25,1],[0,1],[0,0.75],[0,0.5],[0,0.25]];outlineConnect=0;gradientColor=none;html=1;whiteSpace=wrap;fontSize=12;fontStyle=0;container=1;pointerEvents=0;collapsible=0;recursiveResize=0;shape=mxgraph.aws4.group;grIcon=mxgraph.aws4.group_security_group;grStroke=0;strokeColor=#147EBA;fillColor=#E6F2F8;verticalAlign=top;align=left;spacingLeft=30;fontColor=#147EBA;dashed=0;" parent="P3zlHuA92NW-nEsySU8p-326" vertex="1">
          <mxGeometry x="1344.5" y="647" width="597.5" height="762" as="geometry" />
        </mxCell>
        <mxCell id="P3zlHuA92NW-nEsySU8p-205" value="AWS Step Functions &lt;br&gt;State Machine" style="points=[[0,0],[0.25,0],[0.5,0],[0.75,0],[1,0],[1,0.25],[1,0.5],[1,0.75],[1,1],[0.75,1],[0.5,1],[0.25,1],[0,1],[0,0.75],[0,0.5],[0,0.25]];outlineConnect=0;gradientColor=none;html=1;whiteSpace=wrap;fontSize=12;fontStyle=0;container=0;pointerEvents=0;collapsible=0;recursiveResize=0;shape=mxgraph.aws4.group;grIcon=mxgraph.aws4.group_aws_step_functions_workflow;strokeColor=#CD2264;fillColor=none;verticalAlign=top;align=left;spacingLeft=30;fontColor=#CD2264;dashed=0;" parent="P3zlHuA92NW-nEsySU8p-326" vertex="1">
          <mxGeometry x="1366" y="801" width="360" height="588" as="geometry" />
        </mxCell>
        <mxCell id="P3zlHuA92NW-nEsySU8p-51" value="AWS Cloud" style="points=[[0,0],[0.25,0],[0.5,0],[0.75,0],[1,0],[1,0.25],[1,0.5],[1,0.75],[1,1],[0.75,1],[0.5,1],[0.25,1],[0,1],[0,0.75],[0,0.5],[0,0.25]];outlineConnect=0;gradientColor=none;html=1;whiteSpace=wrap;fontSize=12;fontStyle=0;container=0;pointerEvents=0;collapsible=0;recursiveResize=0;shape=mxgraph.aws4.group;grIcon=mxgraph.aws4.group_aws_cloud_alt;strokeColor=#232F3E;fillColor=none;verticalAlign=top;align=left;spacingLeft=30;fontColor=#232F3E;dashed=0;" parent="P3zlHuA92NW-nEsySU8p-326" vertex="1">
          <mxGeometry x="1260" y="283" width="963" height="1160" as="geometry" />
        </mxCell>
        <mxCell id="P3zlHuA92NW-nEsySU8p-172" value="VPC" style="points=[[0,0],[0.25,0],[0.5,0],[0.75,0],[1,0],[1,0.25],[1,0.5],[1,0.75],[1,1],[0.75,1],[0.5,1],[0.25,1],[0,1],[0,0.75],[0,0.5],[0,0.25]];outlineConnect=0;gradientColor=none;html=1;whiteSpace=wrap;fontSize=12;fontStyle=0;container=0;pointerEvents=0;collapsible=0;recursiveResize=0;shape=mxgraph.aws4.group;grIcon=mxgraph.aws4.group_vpc;strokeColor=#248814;fillColor=none;verticalAlign=top;align=left;spacingLeft=30;fontColor=#AAB7B8;dashed=0;" parent="P3zlHuA92NW-nEsySU8p-326" vertex="1">
          <mxGeometry x="1300" y="601" width="860" height="818" as="geometry" />
        </mxCell>
        <mxCell id="P3zlHuA92NW-nEsySU8p-188" value="&lt;font color=&quot;#000000&quot;&gt;&lt;b&gt;AWS VAMS (Existing)&lt;/b&gt;&lt;/font&gt;" style="fillColor=none;strokeColor=#000000;dashed=1;verticalAlign=top;fontStyle=0;fontColor=#147EBA;whiteSpace=wrap;html=1;dashPattern=1 2;" parent="P3zlHuA92NW-nEsySU8p-326" vertex="1">
          <mxGeometry x="1663" y="303" width="357" height="240" as="geometry" />
        </mxCell>
        <mxCell id="P3zlHuA92NW-nEsySU8p-235" value="" style="rounded=0;whiteSpace=wrap;html=1;fillColor=#f2f2f2;dashed=1;dashPattern=1 2;" parent="P3zlHuA92NW-nEsySU8p-326" vertex="1">
          <mxGeometry x="1670" y="627" width="230" height="415" as="geometry" />
        </mxCell>
        <mxCell id="P3zlHuA92NW-nEsySU8p-204" value="" style="group;dashed=1;dashPattern=1 2;" parent="P3zlHuA92NW-nEsySU8p-326" vertex="1" connectable="0">
          <mxGeometry x="1418" y="1051" width="250" height="184" as="geometry" />
        </mxCell>
        <mxCell id="P3zlHuA92NW-nEsySU8p-191" value="" style="rounded=0;whiteSpace=wrap;html=1;fillColor=none;fontColor=#000000;strokeColor=#C73500;dashed=1;" parent="P3zlHuA92NW-nEsySU8p-204" vertex="1">
          <mxGeometry width="250" height="184" as="geometry" />
        </mxCell>
        <mxCell id="P3zlHuA92NW-nEsySU8p-192" value="&lt;font color=&quot;#ffa352&quot;&gt;&lt;br&gt;&lt;b&gt;Fargate Compute Environment&lt;/b&gt;&lt;/font&gt;" style="sketch=0;points=[[0,0,0],[0.25,0,0],[0.5,0,0],[0.75,0,0],[1,0,0],[0,1,0],[0.25,1,0],[0.5,1,0],[0.75,1,0],[1,1,0],[0,0.25,0],[0,0.5,0],[0,0.75,0],[1,0.25,0],[1,0.5,0],[1,0.75,0]];outlineConnect=0;fontColor=#232F3E;gradientColor=#F78E04;gradientDirection=north;fillColor=#D05C17;strokeColor=#ffffff;dashed=0;verticalLabelPosition=bottom;verticalAlign=top;align=center;html=1;fontSize=12;fontStyle=0;aspect=fixed;shape=mxgraph.aws4.resourceIcon;resIcon=mxgraph.aws4.fargate;" parent="P3zlHuA92NW-nEsySU8p-204" vertex="1">
          <mxGeometry x="108.5" y="1" width="33" height="33" as="geometry" />
        </mxCell>
        <mxCell id="P3zlHuA92NW-nEsySU8p-260" value="PDAL&lt;br&gt;Container" style="sketch=0;outlineConnect=0;fontColor=#232F3E;gradientColor=none;fillColor=#D45B07;strokeColor=none;dashed=0;verticalLabelPosition=bottom;verticalAlign=top;align=center;html=1;fontSize=12;fontStyle=0;aspect=fixed;pointerEvents=1;shape=mxgraph.aws4.container_1;" parent="P3zlHuA92NW-nEsySU8p-204" vertex="1">
          <mxGeometry x="35" y="98" width="48" height="31" as="geometry" />
        </mxCell>
        <mxCell id="P3zlHuA92NW-nEsySU8p-261" value="Potree Converter&lt;br&gt;Container" style="sketch=0;outlineConnect=0;fontColor=#232F3E;gradientColor=none;fillColor=#D45B07;strokeColor=none;dashed=0;verticalLabelPosition=bottom;verticalAlign=top;align=center;html=1;fontSize=12;fontStyle=0;aspect=fixed;pointerEvents=1;shape=mxgraph.aws4.container_1;" parent="P3zlHuA92NW-nEsySU8p-204" vertex="1">
          <mxGeometry x="162" y="98" width="48" height="31" as="geometry" />
        </mxCell>
        <mxCell id="OqmzVIcWukRT3DHiStDt-23" value="&lt;i&gt;Fail&lt;/i&gt;" style="text;html=1;align=center;verticalAlign=middle;resizable=0;points=[];autosize=1;strokeColor=none;fillColor=none;" parent="P3zlHuA92NW-nEsySU8p-326" vertex="1">
          <mxGeometry x="1670" y="939" width="37" height="26" as="geometry" />
        </mxCell>
        <mxCell id="ZkvdCX0CWbvOf_RxFRPi-1" value="" style="fillColor=none;strokeColor=#000000;dashed=1;verticalAlign=top;fontStyle=0;fontColor=#147EBA;whiteSpace=wrap;html=1;dashPattern=1 2;" parent="P3zlHuA92NW-nEsySU8p-326" vertex="1">
          <mxGeometry x="2020" y="303" width="140" height="125" as="geometry" />
        </mxCell>
        <mxCell id="ZkvdCX0CWbvOf_RxFRPi-3" value="" style="rounded=0;whiteSpace=wrap;html=1;strokeColor=none;" parent="P3zlHuA92NW-nEsySU8p-326" vertex="1">
          <mxGeometry x="2016" y="303" width="9" height="124" as="geometry" />
        </mxCell>
        <mxCell id="ZkvdCX0CWbvOf_RxFRPi-14" value="" style="rounded=0;whiteSpace=wrap;html=1;fillColor=#f2f2f2;dashed=1;dashPattern=1 2;" parent="P3zlHuA92NW-nEsySU8p-326" vertex="1">
          <mxGeometry x="2276" y="299" width="589" height="931" as="geometry" />
        </mxCell>
        <mxCell id="1" value="Main" style="" parent="0" />
        <mxCell id="P3zlHuA92NW-nEsySU8p-74" value="/laz, /las, /e57" style="edgeStyle=orthogonalEdgeStyle;rounded=0;orthogonalLoop=1;jettySize=auto;html=1;exitX=0;exitY=0.5;exitDx=0;exitDy=0;exitPerimeter=0;entryX=1;entryY=0.5;entryDx=0;entryDy=0;entryPerimeter=0;" parent="1" source="P3zlHuA92NW-nEsySU8p-77" target="P3zlHuA92NW-nEsySU8p-142" edge="1">
          <mxGeometry x="0.3817" y="-10" relative="1" as="geometry">
            <mxPoint as="offset" />
            <mxPoint x="1640" y="356" as="sourcePoint" />
            <mxPoint x="1590" y="371" as="targetPoint" />
            <Array as="points" />
          </mxGeometry>
        </mxCell>
        <mxCell id="P3zlHuA92NW-nEsySU8p-144" style="edgeStyle=orthogonalEdgeStyle;rounded=0;orthogonalLoop=1;jettySize=auto;html=1;" parent="1" source="P3zlHuA92NW-nEsySU8p-142" target="P3zlHuA92NW-nEsySU8p-174" edge="1">
          <mxGeometry relative="1" as="geometry">
            <mxPoint x="1547" y="574" as="targetPoint" />
            <Array as="points">
              <mxPoint x="1558" y="485" />
              <mxPoint x="1558" y="485" />
            </Array>
          </mxGeometry>
        </mxCell>
        <mxCell id="P3zlHuA92NW-nEsySU8p-157" value="" style="edgeStyle=orthogonalEdgeStyle;rounded=0;orthogonalLoop=1;jettySize=auto;html=1;entryX=0.5;entryY=0;entryDx=0;entryDy=0;entryPerimeter=0;startArrow=classic;startFill=1;endArrow=classic;endFill=1;" parent="1" target="P3zlHuA92NW-nEsySU8p-155" edge="1">
          <mxGeometry relative="1" as="geometry">
            <mxPoint x="2037" y="244" as="sourcePoint" />
            <Array as="points">
              <mxPoint x="2037" y="260" />
              <mxPoint x="2090" y="260" />
            </Array>
            <mxPoint x="2090" y="324" as="targetPoint" />
          </mxGeometry>
        </mxCell>
        <mxCell id="P3zlHuA92NW-nEsySU8p-214" style="edgeStyle=orthogonalEdgeStyle;rounded=0;orthogonalLoop=1;jettySize=auto;html=1;entryX=0.5;entryY=0;entryDx=0;entryDy=0;" parent="1" source="P3zlHuA92NW-nEsySU8p-212" target="P3zlHuA92NW-nEsySU8p-191" edge="1">
          <mxGeometry relative="1" as="geometry" />
        </mxCell>
        <mxCell id="P3zlHuA92NW-nEsySU8p-215" value="&lt;font color=&quot;#000000&quot;&gt;Success/Fail State&lt;/font&gt;" style="sketch=0;points=[[0,0,0],[0.25,0,0],[0.5,0,0],[0.75,0,0],[1,0,0],[0,1,0],[0.25,1,0],[0.5,1,0],[0.75,1,0],[1,1,0],[0,0.25,0],[0,0.5,0],[0,0.75,0],[1,0.25,0],[1,0.5,0],[1,0.75,0]];outlineConnect=0;fontColor=#232F3E;gradientColor=#FF4F8B;gradientDirection=north;fillColor=none;strokeColor=#ec3e7c;dashed=0;verticalLabelPosition=bottom;verticalAlign=top;align=center;html=1;fontSize=12;fontStyle=0;aspect=fixed;shape=mxgraph.aws4.resourceIcon;resIcon=mxgraph.aws4.step_functions;labelBackgroundColor=#e6f2f8;" parent="1" vertex="1">
          <mxGeometry x="1513.5" y="1294" width="60" height="60" as="geometry" />
        </mxCell>
        <mxCell id="P3zlHuA92NW-nEsySU8p-216" style="edgeStyle=orthogonalEdgeStyle;rounded=0;orthogonalLoop=1;jettySize=auto;html=1;entryX=0.5;entryY=0;entryDx=0;entryDy=0;entryPerimeter=0;" parent="1" source="P3zlHuA92NW-nEsySU8p-191" target="P3zlHuA92NW-nEsySU8p-215" edge="1">
          <mxGeometry relative="1" as="geometry" />
        </mxCell>
        <mxCell id="P3zlHuA92NW-nEsySU8p-221" style="edgeStyle=orthogonalEdgeStyle;rounded=0;orthogonalLoop=1;jettySize=auto;html=1;entryX=0.5;entryY=0;entryDx=0;entryDy=0;" parent="1" source="P3zlHuA92NW-nEsySU8p-220" target="P3zlHuA92NW-nEsySU8p-205" edge="1">
          <mxGeometry relative="1" as="geometry" />
        </mxCell>
        <mxCell id="P3zlHuA92NW-nEsySU8p-213" style="edgeStyle=orthogonalEdgeStyle;rounded=0;orthogonalLoop=1;jettySize=auto;html=1;entryX=0.5;entryY=0;entryDx=0;entryDy=0;entryPerimeter=0;" parent="1" source="P3zlHuA92NW-nEsySU8p-208" target="P3zlHuA92NW-nEsySU8p-212" edge="1">
          <mxGeometry relative="1" as="geometry" />
        </mxCell>
        <mxCell id="P3zlHuA92NW-nEsySU8p-222" style="edgeStyle=orthogonalEdgeStyle;rounded=0;orthogonalLoop=1;jettySize=auto;html=1;entryX=0;entryY=0.5;entryDx=0;entryDy=0;entryPerimeter=0;exitX=0.25;exitY=1;exitDx=0;exitDy=0;" parent="1" source="P3zlHuA92NW-nEsySU8p-191" target="P3zlHuA92NW-nEsySU8p-208" edge="1">
          <mxGeometry relative="1" as="geometry">
            <Array as="points">
              <mxPoint x="1480.5" y="1281" />
              <mxPoint x="1387.5" y="1281" />
              <mxPoint x="1387.5" y="871" />
            </Array>
          </mxGeometry>
        </mxCell>
        <mxCell id="P3zlHuA92NW-nEsySU8p-175" value="" style="edgeStyle=orthogonalEdgeStyle;rounded=0;orthogonalLoop=1;jettySize=auto;html=1;entryX=0.5;entryY=0;entryDx=0;entryDy=0;entryPerimeter=0;" parent="1" source="P3zlHuA92NW-nEsySU8p-174" target="P3zlHuA92NW-nEsySU8p-220" edge="1">
          <mxGeometry relative="1" as="geometry">
            <mxPoint x="1546" y="658" as="targetPoint" />
          </mxGeometry>
        </mxCell>
        <mxCell id="P3zlHuA92NW-nEsySU8p-224" style="edgeStyle=orthogonalEdgeStyle;rounded=0;orthogonalLoop=1;jettySize=auto;html=1;" parent="1" source="P3zlHuA92NW-nEsySU8p-191" edge="1">
          <mxGeometry relative="1" as="geometry">
            <mxPoint x="2100" y="649" as="targetPoint" />
            <Array as="points">
              <mxPoint x="2100" y="1119" />
            </Array>
          </mxGeometry>
        </mxCell>
        <mxCell id="P3zlHuA92NW-nEsySU8p-270" value="&lt;span style=&quot;&quot;&gt;/laz (temp), Potree 2.0&lt;/span&gt;" style="edgeLabel;html=1;align=center;verticalAlign=middle;resizable=0;points=[];labelBackgroundColor=none;" parent="P3zlHuA92NW-nEsySU8p-224" vertex="1" connectable="0">
          <mxGeometry x="-0.574" y="2" relative="1" as="geometry">
            <mxPoint y="12" as="offset" />
          </mxGeometry>
        </mxCell>
        <mxCell id="P3zlHuA92NW-nEsySU8p-225" style="edgeStyle=orthogonalEdgeStyle;rounded=0;orthogonalLoop=1;jettySize=auto;html=1;startArrow=classic;startFill=1;endArrow=none;endFill=0;" parent="1" edge="1">
          <mxGeometry relative="1" as="geometry">
            <mxPoint x="1669" y="1099" as="sourcePoint" />
            <mxPoint x="2080" y="649" as="targetPoint" />
            <Array as="points">
              <mxPoint x="1669" y="1099" />
              <mxPoint x="2080" y="1099" />
            </Array>
          </mxGeometry>
        </mxCell>
        <mxCell id="P3zlHuA92NW-nEsySU8p-271" value="&lt;span style=&quot;&quot;&gt;/las, /laz, /e57, /laz (temp)&lt;/span&gt;" style="edgeLabel;html=1;align=center;verticalAlign=middle;resizable=0;points=[];labelBackgroundColor=none;" parent="P3zlHuA92NW-nEsySU8p-225" vertex="1" connectable="0">
          <mxGeometry x="-0.5" y="1" relative="1" as="geometry">
            <mxPoint x="-25" y="-11" as="offset" />
          </mxGeometry>
        </mxCell>
        <mxCell id="P3zlHuA92NW-nEsySU8p-231" style="edgeStyle=orthogonalEdgeStyle;rounded=0;orthogonalLoop=1;jettySize=auto;html=1;entryX=0;entryY=0.5;entryDx=0;entryDy=0;entryPerimeter=0;startArrow=classic;startFill=1;endArrow=classic;endFill=1;" parent="1" source="P3zlHuA92NW-nEsySU8p-177" target="P3zlHuA92NW-nEsySU8p-55" edge="1">
          <mxGeometry relative="1" as="geometry" />
        </mxCell>
        <mxCell id="P3zlHuA92NW-nEsySU8p-232" style="edgeStyle=orthogonalEdgeStyle;rounded=0;orthogonalLoop=1;jettySize=auto;html=1;startArrow=none;startFill=0;exitX=0.5;exitY=0;exitDx=0;exitDy=0;exitPerimeter=0;endArrow=classic;endFill=1;" parent="1" source="ZkvdCX0CWbvOf_RxFRPi-2" edge="1">
          <mxGeometry relative="1" as="geometry">
            <mxPoint x="2013" y="244" as="targetPoint" />
            <Array as="points">
              <mxPoint x="1956" y="260" />
              <mxPoint x="2013" y="260" />
              <mxPoint x="2013" y="244" />
            </Array>
            <mxPoint x="1956" y="318" as="sourcePoint" />
          </mxGeometry>
        </mxCell>
        <mxCell id="P3zlHuA92NW-nEsySU8p-155" value="AWS Amplify&lt;br&gt;VAMS Potree Viewer" style="sketch=0;points=[[0,0,0],[0.25,0,0],[0.5,0,0],[0.75,0,0],[1,0,0],[0,1,0],[0.25,1,0],[0.5,1,0],[0.75,1,0],[1,1,0],[0,0.25,0],[0,0.5,0],[0,0.75,0],[1,0.25,0],[1,0.5,0],[1,0.75,0]];outlineConnect=0;fontColor=#232F3E;gradientColor=#F54749;gradientDirection=north;fillColor=#C7131F;strokeColor=#ffffff;dashed=0;verticalLabelPosition=bottom;verticalAlign=top;align=center;html=1;fontSize=12;fontStyle=0;aspect=fixed;shape=mxgraph.aws4.resourceIcon;resIcon=mxgraph.aws4.amplify;" parent="1" vertex="1">
          <mxGeometry x="2064" y="330" width="52" height="52" as="geometry" />
        </mxCell>
        <mxCell id="P3zlHuA92NW-nEsySU8p-334" style="edgeStyle=orthogonalEdgeStyle;rounded=0;orthogonalLoop=1;jettySize=auto;html=1;" parent="1" source="P3zlHuA92NW-nEsySU8p-316" edge="1">
          <mxGeometry relative="1" as="geometry">
            <mxPoint x="1754" y="300" as="targetPoint" />
          </mxGeometry>
        </mxCell>
        <mxCell id="P3zlHuA92NW-nEsySU8p-316" value="&lt;span style=&quot;background-color: rgb(252, 252, 252);&quot;&gt;&lt;span style=&quot;color: rgb(0, 0, 0);&quot;&gt;Point&amp;nbsp;&lt;/span&gt;&lt;span style=&quot;color: rgb(0, 0, 0);&quot;&gt;Cloud&lt;/span&gt;&lt;span style=&quot;color: rgb(0, 0, 0);&quot;&gt;&lt;br&gt;&lt;/span&gt;&lt;/span&gt;&lt;div style=&quot;border-color: var(--border-color); color: rgb(0, 0, 0);&quot;&gt;&lt;span style=&quot;border-color: var(--border-color); background-color: rgb(252, 252, 252);&quot;&gt;Uploader&lt;/span&gt;&lt;/div&gt;" style="sketch=0;outlineConnect=0;fontColor=#232F3E;gradientColor=none;fillColor=#232F3D;strokeColor=none;dashed=0;verticalLabelPosition=bottom;verticalAlign=top;align=center;html=1;fontSize=12;fontStyle=0;aspect=fixed;pointerEvents=1;shape=mxgraph.aws4.user;" parent="1" vertex="1">
          <mxGeometry x="1715" y="130" width="78" height="78" as="geometry" />
        </mxCell>
        <mxCell id="P3zlHuA92NW-nEsySU8p-317" value="&lt;span style=&quot;background-color: rgb(252, 252, 252);&quot;&gt;&lt;span style=&quot;color: rgb(0, 0, 0);&quot;&gt;Point&amp;nbsp;&lt;/span&gt;&lt;span style=&quot;color: rgb(0, 0, 0);&quot;&gt;Cloud&lt;/span&gt;&lt;span style=&quot;color: rgb(0, 0, 0);&quot;&gt;&lt;br&gt;&lt;/span&gt;&lt;/span&gt;&lt;div style=&quot;border-color: var(--border-color); color: rgb(0, 0, 0);&quot;&gt;&lt;span style=&quot;border-color: var(--border-color); background-color: rgb(252, 252, 252);&quot;&gt;Viewer&lt;/span&gt;&lt;/div&gt;" style="sketch=0;outlineConnect=0;fontColor=#232F3E;gradientColor=none;fillColor=#232F3D;strokeColor=none;dashed=0;verticalLabelPosition=bottom;verticalAlign=top;align=center;html=1;fontSize=12;fontStyle=0;aspect=fixed;pointerEvents=1;shape=mxgraph.aws4.user;" parent="1" vertex="1">
          <mxGeometry x="1986" y="130" width="78" height="78" as="geometry" />
        </mxCell>
        <mxCell id="P3zlHuA92NW-nEsySU8p-55" value="&lt;span style=&quot;background-color: rgb(252, 252, 252);&quot;&gt;Amazon S3&lt;br&gt;VisualizerAssets Bucket&lt;/span&gt;" style="sketch=0;points=[[0,0,0],[0.25,0,0],[0.5,0,0],[0.75,0,0],[1,0,0],[0,1,0],[0.25,1,0],[0.5,1,0],[0.75,1,0],[1,1,0],[0,0.25,0],[0,0.5,0],[0,0.75,0],[1,0.25,0],[1,0.5,0],[1,0.75,0]];outlineConnect=0;fontColor=#232F3E;gradientColor=#60A337;gradientDirection=north;fillColor=#277116;strokeColor=#ffffff;dashed=0;verticalLabelPosition=bottom;verticalAlign=top;align=center;html=1;fontSize=12;fontStyle=0;aspect=fixed;shape=mxgraph.aws4.resourceIcon;resIcon=mxgraph.aws4.s3;movable=1;resizable=1;rotatable=1;deletable=1;editable=1;locked=0;connectable=1;" parent="1" vertex="1">
          <mxGeometry x="2065" y="448" width="49" height="49" as="geometry" />
        </mxCell>
        <mxCell id="P3zlHuA92NW-nEsySU8p-220" value="&lt;span style=&quot;background-color: rgb(230, 242, 248);&quot;&gt;AWS Lambda&lt;br&gt;Open Pipeline&lt;/span&gt;" style="sketch=0;points=[[0,0,0],[0.25,0,0],[0.5,0,0],[0.75,0,0],[1,0,0],[0,1,0],[0.25,1,0],[0.5,1,0],[0.75,1,0],[1,1,0],[0,0.25,0],[0,0.5,0],[0,0.75,0],[1,0.25,0],[1,0.5,0],[1,0.75,0]];outlineConnect=0;fontColor=#232F3E;gradientColor=#F78E04;gradientDirection=north;fillColor=#D05C17;strokeColor=#ffffff;dashed=0;verticalLabelPosition=bottom;verticalAlign=top;align=center;html=1;fontSize=12;fontStyle=0;aspect=fixed;shape=mxgraph.aws4.resourceIcon;resIcon=mxgraph.aws4.lambda;" parent="1" vertex="1">
          <mxGeometry x="1520.5" y="684" width="50" height="50" as="geometry" />
        </mxCell>
        <mxCell id="P3zlHuA92NW-nEsySU8p-208" value="&lt;font style=&quot;background-color: rgb(230, 242, 248);&quot; color=&quot;#000000&quot;&gt;Handle Conversions&lt;/font&gt;" style="sketch=0;points=[[0,0,0],[0.25,0,0],[0.5,0,0],[0.75,0,0],[1,0,0],[0,1,0],[0.25,1,0],[0.5,1,0],[0.75,1,0],[1,1,0],[0,0.25,0],[0,0.5,0],[0,0.75,0],[1,0.25,0],[1,0.5,0],[1,0.75,0]];outlineConnect=0;fontColor=#232F3E;gradientColor=#FF4F8B;gradientDirection=north;fillColor=none;strokeColor=#ec3e7c;dashed=0;verticalLabelPosition=bottom;verticalAlign=top;align=center;html=1;fontSize=12;fontStyle=0;aspect=fixed;shape=mxgraph.aws4.resourceIcon;resIcon=mxgraph.aws4.step_functions;labelBackgroundColor=#e6f2f8;" parent="1" vertex="1">
          <mxGeometry x="1513" y="841" width="60" height="60" as="geometry" />
        </mxCell>
        <mxCell id="P3zlHuA92NW-nEsySU8p-212" value="&lt;span style=&quot;background-color: rgb(230, 242, 248);&quot;&gt;Batch Job&lt;/span&gt;" style="sketch=0;points=[[0,0,0],[0.25,0,0],[0.5,0,0],[0.75,0,0],[1,0,0],[0,1,0],[0.25,1,0],[0.5,1,0],[0.75,1,0],[1,1,0],[0,0.25,0],[0,0.5,0],[0,0.75,0],[1,0.25,0],[1,0.5,0],[1,0.75,0]];outlineConnect=0;fontColor=#232F3E;gradientColor=#F78E04;gradientDirection=north;fillColor=none;strokeColor=#f28706;dashed=0;verticalLabelPosition=bottom;verticalAlign=top;align=center;html=1;fontSize=12;fontStyle=0;aspect=fixed;shape=mxgraph.aws4.resourceIcon;resIcon=mxgraph.aws4.batch;container=0;" parent="1" vertex="1">
          <mxGeometry x="1518" y="952" width="50" height="50" as="geometry" />
        </mxCell>
        <mxCell id="P3zlHuA92NW-nEsySU8p-174" value="&lt;span style=&quot;background-color: rgb(252, 252, 252);&quot;&gt;VPC Endpoint&lt;/span&gt;" style="sketch=0;outlineConnect=0;fontColor=#232F3E;gradientColor=none;fillColor=#4D27AA;strokeColor=none;dashed=0;verticalLabelPosition=bottom;verticalAlign=top;align=center;html=1;fontSize=12;fontStyle=0;aspect=fixed;pointerEvents=1;shape=mxgraph.aws4.endpoints;" parent="1" vertex="1">
          <mxGeometry x="1529" y="586" width="34" height="34" as="geometry" />
        </mxCell>
        <mxCell id="P3zlHuA92NW-nEsySU8p-184" value="&lt;span style=&quot;background-color: rgb(252, 252, 252);&quot;&gt;Gateway Endpoint&lt;/span&gt;" style="sketch=0;outlineConnect=0;fillColor=#4d27aa;strokeColor=#9673a6;dashed=0;verticalLabelPosition=bottom;verticalAlign=top;align=center;html=1;fontSize=12;fontStyle=0;aspect=fixed;pointerEvents=1;shape=mxgraph.aws4.endpoint;gradientColor=none;fillStyle=solid;strokeWidth=1;" parent="1" vertex="1">
          <mxGeometry x="2074" y="586" width="32" height="32" as="geometry" />
        </mxCell>
        <mxCell id="P3zlHuA92NW-nEsySU8p-177" value="AWS Lambda&lt;br&gt;Asset Management" style="sketch=0;points=[[0,0,0],[0.25,0,0],[0.5,0,0],[0.75,0,0],[1,0,0],[0,1,0],[0.25,1,0],[0.5,1,0],[0.75,1,0],[1,1,0],[0,0.25,0],[0,0.5,0],[0,0.75,0],[1,0.25,0],[1,0.5,0],[1,0.75,0]];outlineConnect=0;fontColor=#232F3E;gradientColor=#F78E04;gradientDirection=north;fillColor=#D05C17;strokeColor=#ffffff;dashed=0;verticalLabelPosition=bottom;verticalAlign=top;align=center;html=1;fontSize=12;fontStyle=0;aspect=fixed;shape=mxgraph.aws4.resourceIcon;resIcon=mxgraph.aws4.lambda;" parent="1" vertex="1">
          <mxGeometry x="1931.5" y="448" width="49" height="49" as="geometry" />
        </mxCell>
        <mxCell id="P3zlHuA92NW-nEsySU8p-353" style="edgeStyle=orthogonalEdgeStyle;rounded=0;orthogonalLoop=1;jettySize=auto;html=1;" parent="1" source="P3zlHuA92NW-nEsySU8p-77" target="P3zlHuA92NW-nEsySU8p-184" edge="1">
          <mxGeometry relative="1" as="geometry">
            <Array as="points">
              <mxPoint x="1842" y="479" />
              <mxPoint x="1842" y="563" />
              <mxPoint x="2083" y="563" />
            </Array>
          </mxGeometry>
        </mxCell>
        <mxCell id="P3zlHuA92NW-nEsySU8p-355" value="/las, /laz, /e57" style="edgeLabel;html=1;align=center;verticalAlign=middle;resizable=0;points=[];" parent="P3zlHuA92NW-nEsySU8p-353" vertex="1" connectable="0">
          <mxGeometry x="0.2951" y="1" relative="1" as="geometry">
            <mxPoint x="-11" y="13" as="offset" />
          </mxGeometry>
        </mxCell>
        <mxCell id="P3zlHuA92NW-nEsySU8p-77" value="Amazon S3&lt;br&gt;Assets Bucket" style="sketch=0;points=[[0,0,0],[0.25,0,0],[0.5,0,0],[0.75,0,0],[1,0,0],[0,1,0],[0.25,1,0],[0.5,1,0],[0.75,1,0],[1,1,0],[0,0.25,0],[0,0.5,0],[0,0.75,0],[1,0.25,0],[1,0.5,0],[1,0.75,0]];outlineConnect=0;fontColor=#232F3E;gradientColor=#60A337;gradientDirection=north;fillColor=#277116;strokeColor=#ffffff;dashed=0;verticalLabelPosition=bottom;verticalAlign=top;align=center;html=1;fontSize=12;fontStyle=0;aspect=fixed;shape=mxgraph.aws4.resourceIcon;resIcon=mxgraph.aws4.s3;" parent="1" vertex="1">
          <mxGeometry x="1729.5" y="451" width="50" height="50" as="geometry" />
        </mxCell>
        <mxCell id="P3zlHuA92NW-nEsySU8p-354" value="/laz (temp), Potree 2.0" style="edgeStyle=orthogonalEdgeStyle;rounded=0;orthogonalLoop=1;jettySize=auto;html=1;startArrow=classic;startFill=1;" parent="1" edge="1">
          <mxGeometry x="0.0714" y="-64" relative="1" as="geometry">
            <mxPoint x="2098.0000000000005" y="586" as="sourcePoint" />
            <mxPoint x="2098" y="539" as="targetPoint" />
            <Array as="points">
              <mxPoint x="2098" y="556" />
              <mxPoint x="2098" y="556" />
            </Array>
            <mxPoint y="-1" as="offset" />
          </mxGeometry>
        </mxCell>
        <mxCell id="OqmzVIcWukRT3DHiStDt-3" style="edgeStyle=orthogonalEdgeStyle;rounded=0;orthogonalLoop=1;jettySize=auto;html=1;dashed=1;startArrow=classic;startFill=1;" parent="1" target="P3zlHuA92NW-nEsySU8p-174" edge="1">
          <mxGeometry relative="1" as="geometry">
            <mxPoint x="1441" y="403" as="sourcePoint" />
            <Array as="points">
              <mxPoint x="1441" y="554" />
              <mxPoint x="1537" y="554" />
            </Array>
          </mxGeometry>
        </mxCell>
        <mxCell id="OqmzVIcWukRT3DHiStDt-1" value="&lt;span style=&quot;background-color: rgb(255, 255, 255);&quot;&gt;Amazon ECR&lt;/span&gt;" style="sketch=0;points=[[0,0,0],[0.25,0,0],[0.5,0,0],[0.75,0,0],[1,0,0],[0,1,0],[0.25,1,0],[0.5,1,0],[0.75,1,0],[1,1,0],[0,0.25,0],[0,0.5,0],[0,0.75,0],[1,0.25,0],[1,0.5,0],[1,0.75,0]];outlineConnect=0;fontColor=#232F3E;gradientColor=#F78E04;gradientDirection=north;fillColor=#D05C17;strokeColor=#ffffff;dashed=0;verticalLabelPosition=bottom;verticalAlign=top;align=center;html=1;fontSize=12;fontStyle=0;shape=mxgraph.aws4.resourceIcon;resIcon=mxgraph.aws4.ecr;aspect=fixed;" parent="1" vertex="1">
          <mxGeometry x="1419" y="329" width="47.17" height="50" as="geometry" />
        </mxCell>
        <mxCell id="OqmzVIcWukRT3DHiStDt-2" value="&lt;span style=&quot;background-color: rgb(255, 255, 255);&quot;&gt;Amazon &lt;br&gt;CloudWatch&lt;/span&gt;" style="sketch=0;points=[[0,0,0],[0.25,0,0],[0.5,0,0],[0.75,0,0],[1,0,0],[0,1,0],[0.25,1,0],[0.5,1,0],[0.75,1,0],[1,1,0],[0,0.25,0],[0,0.5,0],[0,0.75,0],[1,0.25,0],[1,0.5,0],[1,0.75,0]];points=[[0,0,0],[0.25,0,0],[0.5,0,0],[0.75,0,0],[1,0,0],[0,1,0],[0.25,1,0],[0.5,1,0],[0.75,1,0],[1,1,0],[0,0.25,0],[0,0.5,0],[0,0.75,0],[1,0.25,0],[1,0.5,0],[1,0.75,0]];outlineConnect=0;fontColor=#232F3E;gradientColor=#F34482;gradientDirection=north;fillColor=#BC1356;strokeColor=#ffffff;dashed=0;verticalLabelPosition=bottom;verticalAlign=top;align=center;html=1;fontSize=12;fontStyle=0;aspect=fixed;shape=mxgraph.aws4.resourceIcon;resIcon=mxgraph.aws4.cloudwatch_2;" parent="1" vertex="1">
          <mxGeometry x="1321" y="329" width="50" height="50" as="geometry" />
        </mxCell>
        <mxCell id="OqmzVIcWukRT3DHiStDt-29" value="AWS KMS" style="sketch=0;points=[[0,0,0],[0.25,0,0],[0.5,0,0],[0.75,0,0],[1,0,0],[0,1,0],[0.25,1,0],[0.5,1,0],[0.75,1,0],[1,1,0],[0,0.25,0],[0,0.5,0],[0,0.75,0],[1,0.25,0],[1,0.5,0],[1,0.75,0]];outlineConnect=0;fontColor=#232F3E;gradientColor=#F54749;gradientDirection=north;fillColor=#C7131F;strokeColor=#ffffff;dashed=0;verticalLabelPosition=bottom;verticalAlign=top;align=center;html=1;fontSize=12;fontStyle=0;aspect=fixed;shape=mxgraph.aws4.resourceIcon;resIcon=mxgraph.aws4.key_management_service;" parent="1" vertex="1">
          <mxGeometry x="1321" y="447.5" width="50" height="50" as="geometry" />
        </mxCell>
        <mxCell id="ZkvdCX0CWbvOf_RxFRPi-4" style="edgeStyle=orthogonalEdgeStyle;rounded=0;orthogonalLoop=1;jettySize=auto;html=1;entryX=0.5;entryY=0;entryDx=0;entryDy=0;entryPerimeter=0;startArrow=classic;startFill=1;endArrow=none;endFill=0;" parent="1" target="P3zlHuA92NW-nEsySU8p-177" edge="1">
          <mxGeometry relative="1" as="geometry">
            <mxPoint x="1956" y="414" as="sourcePoint" />
          </mxGeometry>
        </mxCell>
        <mxCell id="ZkvdCX0CWbvOf_RxFRPi-2" value="&lt;span style=&quot;background-color: rgb(255, 255, 255);&quot;&gt;Amazon API Gateway&lt;br&gt;GET /visualizerAssets/*&lt;/span&gt;" style="sketch=0;points=[[0,0,0],[0.25,0,0],[0.5,0,0],[0.75,0,0],[1,0,0],[0,1,0],[0.25,1,0],[0.5,1,0],[0.75,1,0],[1,1,0],[0,0.25,0],[0,0.5,0],[0,0.75,0],[1,0.25,0],[1,0.5,0],[1,0.75,0]];outlineConnect=0;fontColor=#232F3E;gradientColor=#FF4F8B;gradientDirection=north;fillColor=#BC1356;strokeColor=#ffffff;dashed=0;verticalLabelPosition=bottom;verticalAlign=top;align=center;html=1;fontSize=12;fontStyle=0;shape=mxgraph.aws4.resourceIcon;resIcon=mxgraph.aws4.api_gateway;aspect=fixed;" parent="1" vertex="1">
          <mxGeometry x="1931" y="330" width="50" height="50" as="geometry" />
        </mxCell>
        <mxCell id="P3zlHuA92NW-nEsySU8p-142" value="&lt;span style=&quot;background-color: rgb(252, 252, 252);&quot;&gt;Amazon SNS&lt;/span&gt;" style="sketch=0;points=[[0,0,0],[0.25,0,0],[0.5,0,0],[0.75,0,0],[1,0,0],[0,1,0],[0.25,1,0],[0.5,1,0],[0.75,1,0],[1,1,0],[0,0.25,0],[0,0.5,0],[0,0.75,0],[1,0.25,0],[1,0.5,0],[1,0.75,0]];outlineConnect=0;fontColor=#232F3E;gradientColor=#FF4F8B;gradientDirection=north;fillColor=#BC1356;strokeColor=#ffffff;dashed=0;verticalLabelPosition=bottom;verticalAlign=top;align=center;html=1;fontSize=12;fontStyle=0;aspect=fixed;shape=mxgraph.aws4.resourceIcon;resIcon=mxgraph.aws4.sns;" parent="1" vertex="1">
          <mxGeometry x="1521" y="451" width="50" height="50" as="geometry" />
        </mxCell>
        <mxCell id="ZkvdCX0CWbvOf_RxFRPi-6" value="&lt;font color=&quot;#fcfcfc&quot;&gt;&lt;b&gt;10&lt;/b&gt;&lt;/font&gt;" style="ellipse;whiteSpace=wrap;html=1;aspect=fixed;fillColor=#66B2FF;" parent="1" vertex="1">
          <mxGeometry x="1303" y="318" width="25" height="25" as="geometry" />
        </mxCell>
        <mxCell id="ZkvdCX0CWbvOf_RxFRPi-7" value="&lt;font color=&quot;#fcfcfc&quot;&gt;&lt;b&gt;11&lt;/b&gt;&lt;/font&gt;" style="ellipse;whiteSpace=wrap;html=1;aspect=fixed;fillColor=#66B2FF;" parent="1" vertex="1">
          <mxGeometry x="1306" y="435" width="25" height="25" as="geometry" />
        </mxCell>
        <mxCell id="GOVtCaqf3uZ5J7UGGhO3-1" value="" style="sketch=0;points=[[0,0,0],[0.25,0,0],[0.5,0,0],[0.75,0,0],[1,0,0],[0,1,0],[0.25,1,0],[0.5,1,0],[0.75,1,0],[1,1,0],[0,0.25,0],[0,0.5,0],[0,0.75,0],[1,0.25,0],[1,0.5,0],[1,0.75,0]];outlineConnect=0;fontColor=#232F3E;gradientColor=#F78E04;gradientDirection=north;fillColor=#D05C17;strokeColor=#ffffff;dashed=0;verticalLabelPosition=bottom;verticalAlign=top;align=center;html=1;fontSize=12;fontStyle=0;aspect=fixed;shape=mxgraph.aws4.resourceIcon;resIcon=mxgraph.aws4.lambda;" parent="1" vertex="1">
          <mxGeometry x="1533.5" y="863.5" width="16.5" height="16.5" as="geometry" />
        </mxCell>
        <mxCell id="P3zlHuA92NW-nEsySU8p-239" value="" style="sketch=0;points=[[0,0,0],[0.25,0,0],[0.5,0,0],[0.75,0,0],[1,0,0],[0,1,0],[0.25,1,0],[0.5,1,0],[0.75,1,0],[1,1,0],[0,0.25,0],[0,0.5,0],[0,0.75,0],[1,0.25,0],[1,0.5,0],[1,0.75,0]];outlineConnect=0;fontColor=#232F3E;gradientColor=#FF4F8B;gradientDirection=north;fillColor=none;strokeColor=#ec3e7c;dashed=0;verticalLabelPosition=bottom;verticalAlign=top;align=center;html=1;fontSize=12;fontStyle=0;aspect=fixed;shape=mxgraph.aws4.resourceIcon;resIcon=mxgraph.aws4.step_functions;labelBackgroundColor=#e6f2f8;" parent="1" vertex="1">
          <mxGeometry x="1769" y="645" width="32" height="32" as="geometry" />
        </mxCell>
        <mxCell id="P3zlHuA92NW-nEsySU8p-240" value="" style="sketch=0;points=[[0,0,0],[0.25,0,0],[0.5,0,0],[0.75,0,0],[1,0,0],[0,1,0],[0.25,1,0],[0.5,1,0],[0.75,1,0],[1,1,0],[0,0.25,0],[0,0.5,0],[0,0.75,0],[1,0.25,0],[1,0.5,0],[1,0.75,0]];outlineConnect=0;fontColor=#232F3E;gradientColor=#F78E04;gradientDirection=north;fillColor=none;strokeColor=#f28706;dashed=0;verticalLabelPosition=bottom;verticalAlign=top;align=center;html=1;fontSize=12;fontStyle=0;aspect=fixed;shape=mxgraph.aws4.resourceIcon;resIcon=mxgraph.aws4.batch;container=0;" parent="1" vertex="1">
          <mxGeometry x="1691" y="837" width="32" height="32" as="geometry" />
        </mxCell>
        <mxCell id="P3zlHuA92NW-nEsySU8p-245" value="" style="group" parent="1" vertex="1" connectable="0">
          <mxGeometry x="1770" y="765" width="45" height="45" as="geometry" />
        </mxCell>
        <mxCell id="P3zlHuA92NW-nEsySU8p-244" value="" style="sketch=0;points=[[0,0,0],[0.25,0,0],[0.5,0,0],[0.75,0,0],[1,0,0],[0,1,0],[0.25,1,0],[0.5,1,0],[0.75,1,0],[1,1,0],[0,0.25,0],[0,0.5,0],[0,0.75,0],[1,0.25,0],[1,0.5,0],[1,0.75,0]];outlineConnect=0;fontColor=#232F3E;gradientColor=#FF4F8B;gradientDirection=north;fillColor=none;strokeColor=#ec3e7c;dashed=0;verticalLabelPosition=bottom;verticalAlign=top;align=center;html=1;fontSize=12;fontStyle=0;aspect=fixed;shape=mxgraph.aws4.resourceIcon;resIcon=mxgraph.aws4.step_functions;labelBackgroundColor=#e6f2f8;" parent="P3zlHuA92NW-nEsySU8p-245" vertex="1">
          <mxGeometry width="30" height="30" as="geometry" />
        </mxCell>
        <mxCell id="P3zlHuA92NW-nEsySU8p-237" value="" style="rhombus;" parent="P3zlHuA92NW-nEsySU8p-245" vertex="1">
          <mxGeometry x="10.25" y="10.75" width="9" height="9" as="geometry" />
        </mxCell>
        <mxCell id="P3zlHuA92NW-nEsySU8p-252" style="edgeStyle=orthogonalEdgeStyle;rounded=0;orthogonalLoop=1;jettySize=auto;html=1;entryX=0.5;entryY=0;entryDx=0;entryDy=0;entryPerimeter=0;" parent="1" source="P3zlHuA92NW-nEsySU8p-239" target="GOVtCaqf3uZ5J7UGGhO3-2" edge="1">
          <mxGeometry relative="1" as="geometry">
            <mxPoint x="1785" y="713" as="targetPoint" />
          </mxGeometry>
        </mxCell>
        <mxCell id="P3zlHuA92NW-nEsySU8p-246" value="" style="sketch=0;points=[[0,0,0],[0.25,0,0],[0.5,0,0],[0.75,0,0],[1,0,0],[0,1,0],[0.25,1,0],[0.5,1,0],[0.75,1,0],[1,1,0],[0,0.25,0],[0,0.5,0],[0,0.75,0],[1,0.25,0],[1,0.5,0],[1,0.75,0]];outlineConnect=0;fontColor=#232F3E;gradientColor=#FF4F8B;gradientDirection=north;fillColor=none;strokeColor=#ec3e7c;dashed=0;verticalLabelPosition=bottom;verticalAlign=top;align=center;html=1;fontSize=12;fontStyle=0;aspect=fixed;shape=mxgraph.aws4.resourceIcon;resIcon=mxgraph.aws4.step_functions;labelBackgroundColor=#e6f2f8;" parent="1" vertex="1">
          <mxGeometry x="1774.5" y="990" width="32" height="32" as="geometry" />
        </mxCell>
        <mxCell id="P3zlHuA92NW-nEsySU8p-247" style="edgeStyle=orthogonalEdgeStyle;rounded=0;orthogonalLoop=1;jettySize=auto;html=1;entryX=0.5;entryY=0;entryDx=0;entryDy=0;entryPerimeter=0;endArrow=classicThin;endFill=1;" parent="1" source="P3zlHuA92NW-nEsySU8p-237" target="P3zlHuA92NW-nEsySU8p-240" edge="1">
          <mxGeometry relative="1" as="geometry" />
        </mxCell>
        <mxCell id="P3zlHuA92NW-nEsySU8p-255" style="edgeStyle=orthogonalEdgeStyle;rounded=0;orthogonalLoop=1;jettySize=auto;html=1;entryX=0.5;entryY=0;entryDx=0;entryDy=0;entryPerimeter=0;" parent="1" source="P3zlHuA92NW-nEsySU8p-248" target="P3zlHuA92NW-nEsySU8p-246" edge="1">
          <mxGeometry relative="1" as="geometry" />
        </mxCell>
        <mxCell id="P3zlHuA92NW-nEsySU8p-248" value="" style="sketch=0;points=[[0,0,0],[0.25,0,0],[0.5,0,0],[0.75,0,0],[1,0,0],[0,1,0],[0.25,1,0],[0.5,1,0],[0.75,1,0],[1,1,0],[0,0.25,0],[0,0.5,0],[0,0.75,0],[1,0.25,0],[1,0.5,0],[1,0.75,0]];outlineConnect=0;fontColor=#232F3E;gradientColor=#F78E04;gradientDirection=north;fillColor=none;strokeColor=#f28706;dashed=0;verticalLabelPosition=bottom;verticalAlign=top;align=center;html=1;fontSize=12;fontStyle=0;aspect=fixed;shape=mxgraph.aws4.resourceIcon;resIcon=mxgraph.aws4.batch;container=0;" parent="1" vertex="1">
          <mxGeometry x="1774.5" y="912" width="32" height="32" as="geometry" />
        </mxCell>
        <mxCell id="P3zlHuA92NW-nEsySU8p-257" style="edgeStyle=orthogonalEdgeStyle;rounded=0;orthogonalLoop=1;jettySize=auto;html=1;entryX=0.5;entryY=0;entryDx=0;entryDy=0;entryPerimeter=0;" parent="1" source="P3zlHuA92NW-nEsySU8p-249" target="P3zlHuA92NW-nEsySU8p-248" edge="1">
          <mxGeometry relative="1" as="geometry">
            <Array as="points">
              <mxPoint x="1856" y="893" />
              <mxPoint x="1791" y="893" />
            </Array>
          </mxGeometry>
        </mxCell>
        <mxCell id="P3zlHuA92NW-nEsySU8p-249" value="" style="sketch=0;points=[[0,0,0],[0.25,0,0],[0.5,0,0],[0.75,0,0],[1,0,0],[0,1,0],[0.25,1,0],[0.5,1,0],[0.75,1,0],[1,1,0],[0,0.25,0],[0,0.5,0],[0,0.75,0],[1,0.25,0],[1,0.5,0],[1,0.75,0]];outlineConnect=0;fontColor=#232F3E;gradientColor=#FF4F8B;gradientDirection=north;fillColor=none;strokeColor=#ec3e7c;dashed=0;verticalLabelPosition=bottom;verticalAlign=top;align=center;html=1;fontSize=12;fontStyle=0;aspect=fixed;shape=mxgraph.aws4.resourceIcon;resIcon=mxgraph.aws4.step_functions;labelBackgroundColor=#e6f2f8;" parent="1" vertex="1">
          <mxGeometry x="1840" y="837" width="32" height="32" as="geometry" />
        </mxCell>
        <mxCell id="P3zlHuA92NW-nEsySU8p-251" style="edgeStyle=orthogonalEdgeStyle;rounded=0;orthogonalLoop=1;jettySize=auto;html=1;entryX=0;entryY=0.5;entryDx=0;entryDy=0;entryPerimeter=0;endArrow=classicThin;endFill=1;" parent="1" source="P3zlHuA92NW-nEsySU8p-240" target="P3zlHuA92NW-nEsySU8p-249" edge="1">
          <mxGeometry relative="1" as="geometry" />
        </mxCell>
        <mxCell id="P3zlHuA92NW-nEsySU8p-250" value="" style="edgeStyle=orthogonalEdgeStyle;rounded=0;orthogonalLoop=1;jettySize=auto;html=1;entryX=0.5;entryY=0;entryDx=0;entryDy=0;entryPerimeter=0;endArrow=classicThin;endFill=1;" parent="1" source="P3zlHuA92NW-nEsySU8p-244" target="P3zlHuA92NW-nEsySU8p-249" edge="1">
          <mxGeometry x="0.2551" y="18" relative="1" as="geometry">
            <mxPoint as="offset" />
          </mxGeometry>
        </mxCell>
        <mxCell id="P3zlHuA92NW-nEsySU8p-262" value="&lt;b&gt;Conversion Steps&lt;/b&gt;" style="text;html=1;align=center;verticalAlign=middle;resizable=0;points=[];autosize=1;strokeColor=none;fillColor=none;" parent="1" vertex="1">
          <mxGeometry x="1720" y="623" width="130" height="30" as="geometry" />
        </mxCell>
        <mxCell id="P3zlHuA92NW-nEsySU8p-263" value="Is LAS/LAZ?" style="text;html=1;align=center;verticalAlign=middle;resizable=0;points=[];autosize=1;strokeColor=none;fillColor=none;" parent="1" vertex="1">
          <mxGeometry x="1740" y="789" width="90" height="30" as="geometry" />
        </mxCell>
        <mxCell id="P3zlHuA92NW-nEsySU8p-264" value="No" style="text;html=1;align=center;verticalAlign=middle;resizable=0;points=[];autosize=1;strokeColor=none;fillColor=none;" parent="1" vertex="1">
          <mxGeometry x="1667" y="780" width="40" height="30" as="geometry" />
        </mxCell>
        <mxCell id="P3zlHuA92NW-nEsySU8p-265" value="Yes" style="text;html=1;align=center;verticalAlign=middle;resizable=0;points=[];autosize=1;strokeColor=none;fillColor=none;" parent="1" vertex="1">
          <mxGeometry x="1856" y="780" width="40" height="30" as="geometry" />
        </mxCell>
        <mxCell id="OqmzVIcWukRT3DHiStDt-19" style="edgeStyle=orthogonalEdgeStyle;rounded=0;orthogonalLoop=1;jettySize=auto;html=1;dashed=1;" parent="1" source="P3zlHuA92NW-nEsySU8p-266" target="P3zlHuA92NW-nEsySU8p-246" edge="1">
          <mxGeometry relative="1" as="geometry">
            <Array as="points">
              <mxPoint x="1706" y="1006" />
            </Array>
          </mxGeometry>
        </mxCell>
        <mxCell id="P3zlHuA92NW-nEsySU8p-266" value="PDAL &lt;br&gt;(to LAZ)" style="text;html=1;align=center;verticalAlign=middle;resizable=0;points=[];autosize=1;strokeColor=none;fillColor=none;" parent="1" vertex="1">
          <mxGeometry x="1679" y="863" width="61" height="41" as="geometry" />
        </mxCell>
        <mxCell id="P3zlHuA92NW-nEsySU8p-267" value="&lt;span style=&quot;background-color: rgb(242, 242, 242);&quot;&gt;Potree Converter&lt;br&gt;(to Potree 2.0)&lt;/span&gt;" style="text;html=1;align=center;verticalAlign=middle;resizable=0;points=[];autosize=1;strokeColor=none;fillColor=none;glass=0;" parent="1" vertex="1">
          <mxGeometry x="1735.5" y="940" width="110" height="40" as="geometry" />
        </mxCell>
        <mxCell id="P3zlHuA92NW-nEsySU8p-268" value="Start State" style="text;html=1;align=center;verticalAlign=middle;resizable=0;points=[];autosize=1;strokeColor=none;fillColor=none;" parent="1" vertex="1">
          <mxGeometry x="1748" y="670" width="75" height="26" as="geometry" />
        </mxCell>
        <mxCell id="P3zlHuA92NW-nEsySU8p-269" value="Success/Fail State" style="text;html=1;align=center;verticalAlign=middle;resizable=0;points=[];autosize=1;strokeColor=none;fillColor=none;" parent="1" vertex="1">
          <mxGeometry x="1734.5" y="1014" width="117" height="26" as="geometry" />
        </mxCell>
        <mxCell id="GOVtCaqf3uZ5J7UGGhO3-3" value="" style="edgeStyle=orthogonalEdgeStyle;rounded=0;orthogonalLoop=1;jettySize=auto;html=1;" parent="1" source="GOVtCaqf3uZ5J7UGGhO3-2" edge="1">
          <mxGeometry relative="1" as="geometry">
            <mxPoint x="1785" y="764" as="targetPoint" />
          </mxGeometry>
        </mxCell>
        <mxCell id="GOVtCaqf3uZ5J7UGGhO3-2" value="" style="sketch=0;points=[[0,0,0],[0.25,0,0],[0.5,0,0],[0.75,0,0],[1,0,0],[0,1,0],[0.25,1,0],[0.5,1,0],[0.75,1,0],[1,1,0],[0,0.25,0],[0,0.5,0],[0,0.75,0],[1,0.25,0],[1,0.5,0],[1,0.75,0]];outlineConnect=0;fontColor=#232F3E;gradientColor=none;gradientDirection=north;fillColor=none;strokeColor=#F78E04;dashed=0;verticalLabelPosition=bottom;verticalAlign=top;align=center;html=1;fontSize=12;fontStyle=0;aspect=fixed;shape=mxgraph.aws4.resourceIcon;resIcon=mxgraph.aws4.lambda;" parent="1" vertex="1">
          <mxGeometry x="1769" y="702" width="32" height="32" as="geometry" />
        </mxCell>
        <mxCell id="GOVtCaqf3uZ5J7UGGhO3-7" style="edgeStyle=orthogonalEdgeStyle;rounded=0;orthogonalLoop=1;jettySize=auto;html=1;entryX=0.75;entryY=1;entryDx=0;entryDy=0;startArrow=classic;startFill=1;dashed=1;" parent="1" source="GOVtCaqf3uZ5J7UGGhO3-5" target="P3zlHuA92NW-nEsySU8p-191" edge="1">
          <mxGeometry relative="1" as="geometry" />
        </mxCell>
        <mxCell id="GOVtCaqf3uZ5J7UGGhO3-5" value="Amazon EFS&lt;br&gt;Containers Shared Storage" style="sketch=0;points=[[0,0,0],[0.25,0,0],[0.5,0,0],[0.75,0,0],[1,0,0],[0,1,0],[0.25,1,0],[0.5,1,0],[0.75,1,0],[1,1,0],[0,0.25,0],[0,0.5,0],[0,0.75,0],[1,0.25,0],[1,0.5,0],[1,0.75,0]];outlineConnect=0;fontColor=#232F3E;gradientColor=#60A337;gradientDirection=north;fillColor=#277116;strokeColor=#ffffff;dashed=0;verticalLabelPosition=bottom;verticalAlign=top;align=center;html=1;fontSize=12;fontStyle=0;aspect=fixed;shape=mxgraph.aws4.resourceIcon;resIcon=mxgraph.aws4.efs_standard;" parent="1" vertex="1">
          <mxGeometry x="1806" y="1256" width="50" height="50" as="geometry" />
        </mxCell>
        <mxCell id="GOVtCaqf3uZ5J7UGGhO3-10" value="&lt;i&gt;(Optional)&lt;/i&gt;" style="text;html=1;align=center;verticalAlign=middle;resizable=0;points=[];autosize=1;strokeColor=none;fillColor=none;" parent="1" vertex="1">
          <mxGeometry x="1796" y="1338" width="71" height="26" as="geometry" />
        </mxCell>
        <mxCell id="QVt0yQZn6L6gyPZ4tEMD-2" style="edgeStyle=orthogonalEdgeStyle;rounded=0;orthogonalLoop=1;jettySize=auto;html=1;entryX=0.5;entryY=0;entryDx=0;entryDy=0;entryPerimeter=0;dashed=1;" edge="1" parent="1" source="QVt0yQZn6L6gyPZ4tEMD-1" target="P3zlHuA92NW-nEsySU8p-142">
          <mxGeometry relative="1" as="geometry" />
        </mxCell>
        <mxCell id="QVt0yQZn6L6gyPZ4tEMD-3" value="/laz, /las, /e57" style="edgeLabel;html=1;align=center;verticalAlign=middle;resizable=0;points=[];" vertex="1" connectable="0" parent="QVt0yQZn6L6gyPZ4tEMD-2">
          <mxGeometry x="-0.062" y="-1" relative="1" as="geometry">
            <mxPoint x="17" y="-12" as="offset" />
          </mxGeometry>
        </mxCell>
        <mxCell id="QVt0yQZn6L6gyPZ4tEMD-1" value="AWS Lambda&lt;br&gt;Visualizer Pipeline Execute&lt;br&gt;(Optional - VAMS Workflow)" style="sketch=0;points=[[0,0,0],[0.25,0,0],[0.5,0,0],[0.75,0,0],[1,0,0],[0,1,0],[0.25,1,0],[0.5,1,0],[0.75,1,0],[1,1,0],[0,0.25,0],[0,0.5,0],[0,0.75,0],[1,0.25,0],[1,0.5,0],[1,0.75,0]];outlineConnect=0;fontColor=#232F3E;gradientColor=#F78E04;gradientDirection=north;fillColor=#D05C17;strokeColor=#ffffff;dashed=0;verticalLabelPosition=bottom;verticalAlign=top;align=center;html=1;fontSize=12;fontStyle=0;aspect=fixed;shape=mxgraph.aws4.resourceIcon;resIcon=mxgraph.aws4.lambda;" vertex="1" parent="1">
          <mxGeometry x="1730" y="329" width="49" height="49" as="geometry" />
        </mxCell>
        <mxCell id="QVt0yQZn6L6gyPZ4tEMD-4" value="" style="sketch=0;points=[[0,0,0],[0.25,0,0],[0.5,0,0],[0.75,0,0],[1,0,0],[0,1,0],[0.25,1,0],[0.5,1,0],[0.75,1,0],[1,1,0],[0,0.25,0],[0,0.5,0],[0,0.75,0],[1,0.25,0],[1,0.5,0],[1,0.75,0]];outlineConnect=0;fontColor=#232F3E;gradientColor=#F78E04;gradientDirection=north;fillColor=#D05C17;strokeColor=#ffffff;dashed=0;verticalLabelPosition=bottom;verticalAlign=top;align=center;html=1;fontSize=12;fontStyle=0;aspect=fixed;shape=mxgraph.aws4.resourceIcon;resIcon=mxgraph.aws4.lambda;" vertex="1" parent="1">
          <mxGeometry x="1535.25" y="1315.75" width="16.5" height="16.5" as="geometry" />
        </mxCell>
        <mxCell id="QVt0yQZn6L6gyPZ4tEMD-5" value="" style="sketch=0;points=[[0,0,0],[0.25,0,0],[0.5,0,0],[0.75,0,0],[1,0,0],[0,1,0],[0.25,1,0],[0.5,1,0],[0.75,1,0],[1,1,0],[0,0.25,0],[0,0.5,0],[0,0.75,0],[1,0.25,0],[1,0.5,0],[1,0.75,0]];outlineConnect=0;fontColor=#232F3E;gradientColor=#F78E04;gradientDirection=north;fillColor=#D05C17;strokeColor=#ffffff;dashed=0;verticalLabelPosition=bottom;verticalAlign=top;align=center;html=1;fontSize=12;fontStyle=0;aspect=fixed;shape=mxgraph.aws4.resourceIcon;resIcon=mxgraph.aws4.lambda;" vertex="1" parent="1">
          <mxGeometry x="1786.37" y="1002" width="8.25" height="8.25" as="geometry" />
        </mxCell>
        <object label="Workflow" id="P3zlHuA92NW-nEsySU8p-318">
          <mxCell style="locked=1;" parent="0" />
        </object>
        <mxCell id="P3zlHuA92NW-nEsySU8p-324" value="&lt;font color=&quot;#fcfcfc&quot;&gt;&lt;b&gt;5&lt;/b&gt;&lt;/font&gt;" style="ellipse;whiteSpace=wrap;html=1;aspect=fixed;fillColor=#66B2FF;" parent="P3zlHuA92NW-nEsySU8p-318" vertex="1">
          <mxGeometry x="1657.5" y="612" width="25" height="25" as="geometry" />
        </mxCell>
        <mxCell id="P3zlHuA92NW-nEsySU8p-300" value="&lt;font color=&quot;#fcfcfc&quot;&gt;&lt;b&gt;3&lt;/b&gt;&lt;/font&gt;" style="ellipse;whiteSpace=wrap;html=1;aspect=fixed;fillColor=#66B2FF;" parent="P3zlHuA92NW-nEsySU8p-318" vertex="1">
          <mxGeometry x="1352" y="789" width="25" height="25" as="geometry" />
        </mxCell>
        <mxCell id="P3zlHuA92NW-nEsySU8p-295" value="&lt;font color=&quot;#fcfcfc&quot;&gt;&lt;b&gt;4&lt;/b&gt;&lt;/font&gt;" style="ellipse;whiteSpace=wrap;html=1;aspect=fixed;fillColor=#66B2FF;" parent="P3zlHuA92NW-nEsySU8p-318" vertex="1">
          <mxGeometry x="1405" y="1036" width="25" height="25" as="geometry" />
        </mxCell>
        <mxCell id="P3zlHuA92NW-nEsySU8p-283" value="&lt;font color=&quot;#fcfcfc&quot;&gt;&lt;b&gt;6&lt;/b&gt;&lt;/font&gt;" style="ellipse;whiteSpace=wrap;html=1;aspect=fixed;fillColor=#66B2FF;" parent="P3zlHuA92NW-nEsySU8p-318" vertex="1">
          <mxGeometry x="2050" y="435" width="25" height="25" as="geometry" />
        </mxCell>
        <mxCell id="P3zlHuA92NW-nEsySU8p-319" value="&lt;font color=&quot;#fcfcfc&quot;&gt;&lt;b&gt;7&lt;/b&gt;&lt;/font&gt;" style="ellipse;whiteSpace=wrap;html=1;aspect=fixed;fillColor=#66B2FF;" parent="P3zlHuA92NW-nEsySU8p-318" vertex="1">
          <mxGeometry x="2049" y="318" width="25" height="25" as="geometry" />
        </mxCell>
        <mxCell id="P3zlHuA92NW-nEsySU8p-285" value="&lt;font color=&quot;#fcfcfc&quot;&gt;&lt;b&gt;8&lt;/b&gt;&lt;/font&gt;" style="ellipse;whiteSpace=wrap;html=1;aspect=fixed;fillColor=#66B2FF;" parent="P3zlHuA92NW-nEsySU8p-318" vertex="1">
          <mxGeometry x="1915" y="317" width="25" height="25" as="geometry" />
        </mxCell>
        <mxCell id="P3zlHuA92NW-nEsySU8p-292" value="&lt;font color=&quot;#fcfcfc&quot;&gt;&lt;b&gt;1&lt;/b&gt;&lt;/font&gt;" style="ellipse;whiteSpace=wrap;html=1;aspect=fixed;fillColor=#66B2FF;" parent="P3zlHuA92NW-nEsySU8p-318" vertex="1">
          <mxGeometry x="1650" y="293" width="25" height="25" as="geometry" />
        </mxCell>
        <mxCell id="P3zlHuA92NW-nEsySU8p-322" value="&lt;font color=&quot;#fcfcfc&quot;&gt;&lt;b&gt;9&lt;/b&gt;&lt;/font&gt;" style="ellipse;whiteSpace=wrap;html=1;aspect=fixed;fillColor=#66B2FF;" parent="P3zlHuA92NW-nEsySU8p-318" vertex="1">
          <mxGeometry x="1917" y="435" width="25" height="25" as="geometry" />
        </mxCell>
        <mxCell id="P3zlHuA92NW-nEsySU8p-332" value="&lt;span style=&quot;color: rgb(0, 0, 0); font-family: Helvetica; font-size: 12px; font-style: normal; font-variant-ligatures: normal; font-variant-caps: normal; font-weight: 400; letter-spacing: normal; orphans: 2; text-align: left; text-indent: 0px; text-transform: none; widows: 2; word-spacing: 0px; -webkit-text-stroke-width: 0px; text-decoration-thickness: initial; text-decoration-style: initial; text-decoration-color: initial; float: none; display: inline !important;&quot;&gt;The existing&amp;nbsp;&lt;/span&gt;&lt;b style=&quot;border-color: var(--border-color); color: rgb(0, 0, 0); font-family: Helvetica; font-size: 12px; font-style: normal; font-variant-ligatures: normal; font-variant-caps: normal; letter-spacing: normal; orphans: 2; text-align: left; text-indent: 0px; text-transform: none; widows: 2; word-spacing: 0px; -webkit-text-stroke-width: 0px; text-decoration-thickness: initial; text-decoration-style: initial; text-decoration-color: initial;&quot;&gt;AWS Visual Asset Management System (VAMS) &lt;/b&gt;&lt;span style=&quot;border-color: var(--border-color); color: rgb(0, 0, 0); font-family: Helvetica; font-size: 12px; font-style: normal; font-variant-ligatures: normal; font-variant-caps: normal; letter-spacing: normal; orphans: 2; text-align: left; text-indent: 0px; text-transform: none; widows: 2; word-spacing: 0px; -webkit-text-stroke-width: 0px; text-decoration-thickness: initial; text-decoration-style: initial; text-decoration-color: initial;&quot;&gt;solution&lt;/span&gt;&lt;span style=&quot;color: rgb(0, 0, 0); font-family: Helvetica; font-size: 12px; font-style: normal; font-variant-ligatures: normal; font-variant-caps: normal; font-weight: 400; letter-spacing: normal; orphans: 2; text-align: left; text-indent: 0px; text-transform: none; widows: 2; word-spacing: 0px; -webkit-text-stroke-width: 0px; text-decoration-thickness: initial; text-decoration-style: initial; text-decoration-color: initial; float: none; display: inline !important;&quot;&gt;&lt;span&gt;&amp;nbsp;&lt;/span&gt;facilitates storage, management, transformation, and viewing of visualization assets. &lt;/span&gt;&lt;span style=&quot;color: rgb(0, 0, 0); font-family: Helvetica; font-size: 12px; font-style: normal; font-variant-ligatures: normal; font-variant-caps: normal; letter-spacing: normal; orphans: 2; text-align: left; text-indent: 0px; text-transform: none; widows: 2; word-spacing: 0px; -webkit-text-stroke-width: 0px; text-decoration-thickness: initial; text-decoration-style: initial; text-decoration-color: initial; float: none; display: inline !important;&quot;&gt;The point cloud support modifications primarily affect the &lt;b&gt;Amazon S3&lt;/b&gt; asset file storage buckets for file uploads, &lt;b&gt;AWS Lambda&lt;/b&gt; asset management functions, and &lt;b&gt;AWS Amplify&lt;/b&gt; web UX from the existing VAMS infrastructure components.&lt;b&gt;&amp;nbsp;&lt;/b&gt;&lt;/span&gt;&lt;b&gt;VAMS Web UX&lt;/b&gt; now allows for point cloud file asset type uploads.&amp;nbsp;" style="text;whiteSpace=wrap;html=1;" parent="P3zlHuA92NW-nEsySU8p-318" vertex="1">
          <mxGeometry x="2340" y="310" width="500" height="80" as="geometry" />
        </mxCell>
        <mxCell id="P3zlHuA92NW-nEsySU8p-333" value="Once a point cloud file is uploaded to the &lt;b&gt;Amazon S3&lt;/b&gt; assets bucket through the VAMS Web UX or a pipeline call is manually fired off through a &lt;b&gt;AWS Lambda&lt;/b&gt; function, an &lt;b&gt;Amazon SNS Topic&lt;/b&gt; publishes a notification which notifies downstream AWS Lambda function for visualization pipeline processing." style="text;whiteSpace=wrap;html=1;" parent="P3zlHuA92NW-nEsySU8p-318" vertex="1">
          <mxGeometry x="2340" y="410" width="500" height="50" as="geometry" />
        </mxCell>
        <mxCell id="P3zlHuA92NW-nEsySU8p-276" value="&lt;font color=&quot;#fcfcfc&quot;&gt;&lt;b&gt;1&lt;/b&gt;&lt;/font&gt;" style="ellipse;whiteSpace=wrap;html=1;aspect=fixed;fillColor=#66B2FF;" parent="P3zlHuA92NW-nEsySU8p-318" vertex="1">
          <mxGeometry x="2300" y="340" width="25" height="25" as="geometry" />
        </mxCell>
        <mxCell id="P3zlHuA92NW-nEsySU8p-277" value="&lt;font color=&quot;#fcfcfc&quot;&gt;&lt;b&gt;2&lt;/b&gt;&lt;/font&gt;" style="ellipse;whiteSpace=wrap;html=1;aspect=fixed;fillColor=#66B2FF;" parent="P3zlHuA92NW-nEsySU8p-318" vertex="1">
          <mxGeometry x="2300" y="420" width="25" height="25" as="geometry" />
        </mxCell>
        <mxCell id="P3zlHuA92NW-nEsySU8p-280" value="&lt;font color=&quot;#fcfcfc&quot;&gt;&lt;b&gt;3&lt;/b&gt;&lt;/font&gt;" style="ellipse;whiteSpace=wrap;html=1;aspect=fixed;fillColor=#66B2FF;" parent="P3zlHuA92NW-nEsySU8p-318" vertex="1">
          <mxGeometry x="2300" y="499" width="25" height="25" as="geometry" />
        </mxCell>
        <mxCell id="P3zlHuA92NW-nEsySU8p-281" value="&lt;font color=&quot;#fcfcfc&quot;&gt;&lt;b&gt;4&lt;/b&gt;&lt;/font&gt;" style="ellipse;whiteSpace=wrap;html=1;aspect=fixed;fillColor=#66B2FF;" parent="P3zlHuA92NW-nEsySU8p-318" vertex="1">
          <mxGeometry x="2300" y="561" width="25" height="25" as="geometry" />
        </mxCell>
        <mxCell id="P3zlHuA92NW-nEsySU8p-282" value="&lt;font color=&quot;#fcfcfc&quot;&gt;&lt;b&gt;5&lt;/b&gt;&lt;/font&gt;" style="ellipse;whiteSpace=wrap;html=1;aspect=fixed;fillColor=#66B2FF;" parent="P3zlHuA92NW-nEsySU8p-318" vertex="1">
          <mxGeometry x="2300" y="650.75" width="25" height="25" as="geometry" />
        </mxCell>
        <mxCell id="P3zlHuA92NW-nEsySU8p-284" value="&lt;font color=&quot;#fcfcfc&quot;&gt;&lt;b&gt;7&lt;/b&gt;&lt;/font&gt;" style="ellipse;whiteSpace=wrap;html=1;aspect=fixed;fillColor=#66B2FF;" parent="P3zlHuA92NW-nEsySU8p-318" vertex="1">
          <mxGeometry x="2300" y="832.63" width="25" height="25" as="geometry" />
        </mxCell>
        <mxCell id="P3zlHuA92NW-nEsySU8p-289" value="&lt;font color=&quot;#fcfcfc&quot;&gt;&lt;b&gt;9&lt;/b&gt;&lt;/font&gt;" style="ellipse;whiteSpace=wrap;html=1;aspect=fixed;fillColor=#66B2FF;" parent="P3zlHuA92NW-nEsySU8p-318" vertex="1">
          <mxGeometry x="2300" y="985.75" width="25" height="25" as="geometry" />
        </mxCell>
        <mxCell id="P3zlHuA92NW-nEsySU8p-290" value="&lt;font color=&quot;#fcfcfc&quot;&gt;&lt;b&gt;8&lt;/b&gt;&lt;/font&gt;" style="ellipse;whiteSpace=wrap;html=1;aspect=fixed;fillColor=#66B2FF;" parent="P3zlHuA92NW-nEsySU8p-318" vertex="1">
          <mxGeometry x="2300" y="913.25" width="25" height="25" as="geometry" />
        </mxCell>
        <mxCell id="P3zlHuA92NW-nEsySU8p-291" value="&lt;font color=&quot;#fcfcfc&quot;&gt;&lt;b&gt;6&lt;/b&gt;&lt;/font&gt;" style="ellipse;whiteSpace=wrap;html=1;aspect=fixed;fillColor=#66B2FF;" parent="P3zlHuA92NW-nEsySU8p-318" vertex="1">
          <mxGeometry x="2300" y="733.88" width="25" height="25" as="geometry" />
        </mxCell>
        <mxCell id="P3zlHuA92NW-nEsySU8p-341" value="&lt;span style=&quot;color: rgb(0, 0, 0); font-family: Helvetica; font-size: 12px; font-style: normal; font-variant-ligatures: normal; font-variant-caps: normal; font-weight: 400; letter-spacing: normal; orphans: 2; text-align: left; text-indent: 0px; text-transform: none; widows: 2; word-spacing: 0px; -webkit-text-stroke-width: 0px; text-decoration-thickness: initial; text-decoration-style: initial; text-decoration-color: initial; float: none; display: inline !important;&quot;&gt;The&amp;nbsp;&lt;/span&gt;&lt;b style=&quot;border-color: var(--border-color); color: rgb(0, 0, 0); font-family: Helvetica; font-size: 12px; font-style: normal; font-variant-ligatures: normal; font-variant-caps: normal; letter-spacing: normal; orphans: 2; text-align: left; text-indent: 0px; text-transform: none; widows: 2; word-spacing: 0px; -webkit-text-stroke-width: 0px; text-decoration-thickness: initial; text-decoration-style: initial; text-decoration-color: initial;&quot;&gt;AWS Step Functions State Machine&lt;/b&gt;&lt;span style=&quot;color: rgb(0, 0, 0); font-family: Helvetica; font-size: 12px; font-style: normal; font-variant-ligatures: normal; font-variant-caps: normal; font-weight: 400; letter-spacing: normal; orphans: 2; text-align: left; text-indent: 0px; text-transform: none; widows: 2; word-spacing: 0px; -webkit-text-stroke-width: 0px; text-decoration-thickness: initial; text-decoration-style: initial; text-decoration-color: initial; float: none; display: inline !important;&quot;&gt;&lt;span&gt;&amp;nbsp;&lt;/span&gt;orchestrates the point cloud processing pipeline. &lt;/span&gt;&lt;b style=&quot;border-color: var(--border-color); color: rgb(0, 0, 0); font-family: Helvetica; font-size: 12px; font-style: normal; font-variant-ligatures: normal; font-variant-caps: normal; letter-spacing: normal; orphans: 2; text-align: left; text-indent: 0px; text-transform: none; widows: 2; word-spacing: 0px; -webkit-text-stroke-width: 0px; text-decoration-thickness: initial; text-decoration-style: initial; text-decoration-color: initial;&quot;&gt;AWS Batch&lt;/b&gt;&lt;span style=&quot;color: rgb(0, 0, 0); font-family: Helvetica; font-size: 12px; font-style: normal; font-variant-ligatures: normal; font-variant-caps: normal; font-weight: 400; letter-spacing: normal; orphans: 2; text-align: left; text-indent: 0px; text-transform: none; widows: 2; word-spacing: 0px; -webkit-text-stroke-width: 0px; text-decoration-thickness: initial; text-decoration-style: initial; text-decoration-color: initial; float: none; display: inline !important;&quot;&gt;&amp;nbsp;handles scheduling and batch processing of pipeline computing jobs.&amp;nbsp;&lt;/span&gt;" style="text;whiteSpace=wrap;html=1;" parent="P3zlHuA92NW-nEsySU8p-318" vertex="1">
          <mxGeometry x="2340" y="491" width="500" height="38" as="geometry" />
        </mxCell>
        <mxCell id="P3zlHuA92NW-nEsySU8p-331" value="&lt;b&gt;AWS Fargate&lt;/b&gt; manages provisioning resources for the point cloud visualization processing pipeline &lt;b&gt;Docker Containers&lt;/b&gt;. &lt;b&gt;Amazon ECR&lt;/b&gt; stores and provides the container images to AWS Fargate. The pipeline converts the point cloud files to point cloud tile formats used for downstream consumption by the web visualizer.&amp;nbsp;" style="text;whiteSpace=wrap;html=1;" parent="P3zlHuA92NW-nEsySU8p-318" vertex="1">
          <mxGeometry x="2339" y="551" width="501" height="65" as="geometry" />
        </mxCell>
        <mxCell id="P3zlHuA92NW-nEsySU8p-343" value="The &lt;b&gt;AWS Step States&lt;/b&gt; first constructs the pipeline input to check if the uploaded file is in a &lt;b&gt;LAS/LAZ&lt;/b&gt; format and converts it to LAZ through the &lt;b&gt;PDAL&lt;/b&gt; Docker Container, if not. The final processing step converts the LAS/LAZ file to a &lt;b&gt;Potree 2.0 Point Cloud Format&lt;/b&gt; using the &lt;b&gt;Potree Conveter&lt;/b&gt; Docker Container.&amp;nbsp;&amp;nbsp;" style="text;whiteSpace=wrap;html=1;" parent="P3zlHuA92NW-nEsySU8p-318" vertex="1">
          <mxGeometry x="2340" y="632" width="500" height="62.5" as="geometry" />
        </mxCell>
        <mxCell id="P3zlHuA92NW-nEsySU8p-344" value="The &lt;b&gt;Amazon S3 VisualizerAssets Bucket&lt;/b&gt; stores pipeline output data for the point cloud web visualizer in the form of &lt;b&gt;point cloud tile formats&lt;/b&gt;. The VisualizerAssets bucket additionally holds temporary conversion data between step function states for the pipeline process. Data in this bucket is unversioned in VAMS and is seperate from VAMS versioned assets." style="text;whiteSpace=wrap;html=1;" parent="P3zlHuA92NW-nEsySU8p-318" vertex="1">
          <mxGeometry x="2340" y="712" width="500" height="78.75" as="geometry" />
        </mxCell>
        <mxCell id="P3zlHuA92NW-nEsySU8p-345" value="&lt;b&gt;AWS Amplify&lt;/b&gt; serves the &lt;b&gt;Potree Viewer Point Cloud Web Visualizer&lt;/b&gt; embedded into the existing &lt;b&gt;VAMS Web UX&lt;/b&gt; component. Potree Viewer visualizes point cloud tile formats and streams only file sub-sections based on level of detail algorithms, reducing bandwidth and increasing viewing performance for large point cloud data sets.&amp;nbsp;" style="text;whiteSpace=wrap;html=1;" parent="P3zlHuA92NW-nEsySU8p-318" vertex="1">
          <mxGeometry x="2340" y="810.75" width="500" height="80" as="geometry" />
        </mxCell>
        <mxCell id="P3zlHuA92NW-nEsySU8p-348" value="&lt;b&gt;Amazon API Gateway&amp;nbsp;&lt;/b&gt;fetches and serves the point cloud tile format from the Amazon S3 VisualizerAssets bucket through a &lt;b&gt;AWS Lambda&lt;/b&gt; proxy. The /visualizerAssets/* end point is used by the VAMS point cloud web visualizer UX component. This endpoint extends the existing VAMS endpoints. Fetch sizes are limited to 6MB chunk requests.&amp;nbsp;" style="text;whiteSpace=wrap;html=1;" parent="P3zlHuA92NW-nEsySU8p-318" vertex="1">
          <mxGeometry x="2340" y="893.75" width="506" height="64.25" as="geometry" />
        </mxCell>
        <mxCell id="P3zlHuA92NW-nEsySU8p-350" value="&lt;b&gt;AWS Lambda&lt;/b&gt; asset management functions fetch, update, and delete unversioned Visualizer Assets in &lt;b&gt;Amazon S3. &lt;/b&gt;New functions fetch the files through the &lt;b&gt;API Gateway &lt;/b&gt;for the Web Visualizer while existing functions modify based on versioned asset management requests." style="text;whiteSpace=wrap;html=1;" parent="P3zlHuA92NW-nEsySU8p-318" vertex="1">
          <mxGeometry x="2340" y="972" width="500" height="54" as="geometry" />
        </mxCell>
        <mxCell id="OqmzVIcWukRT3DHiStDt-14" value="&lt;font color=&quot;#fcfcfc&quot;&gt;&lt;b&gt;4&lt;/b&gt;&lt;/font&gt;" style="ellipse;whiteSpace=wrap;html=1;aspect=fixed;fillColor=#66B2FF;" parent="P3zlHuA92NW-nEsySU8p-318" vertex="1">
          <mxGeometry x="1404" y="316" width="25" height="25" as="geometry" />
        </mxCell>
        <mxCell id="P3zlHuA92NW-nEsySU8p-293" value="&lt;font color=&quot;#fcfcfc&quot;&gt;&lt;b&gt;2&lt;/b&gt;&lt;/font&gt;" style="ellipse;whiteSpace=wrap;html=1;aspect=fixed;fillColor=#66B2FF;" parent="P3zlHuA92NW-nEsySU8p-318" vertex="1">
          <mxGeometry x="1504" y="436" width="25" height="25" as="geometry" />
        </mxCell>
        <mxCell id="ZkvdCX0CWbvOf_RxFRPi-10" value="&lt;b&gt;Amazon KMS&lt;/b&gt; manages the encryption keys between Amazon SNS and AWS Lambda for the S3 Assets Bucket create object topics.&amp;nbsp;" style="text;whiteSpace=wrap;html=1;" parent="P3zlHuA92NW-nEsySU8p-318" vertex="1">
          <mxGeometry x="2340" y="1101" width="500" height="41" as="geometry" />
        </mxCell>
        <mxCell id="ZkvdCX0CWbvOf_RxFRPi-11" value="&lt;font color=&quot;#fcfcfc&quot;&gt;&lt;b&gt;11&lt;/b&gt;&lt;/font&gt;" style="ellipse;whiteSpace=wrap;html=1;aspect=fixed;fillColor=#66B2FF;" parent="P3zlHuA92NW-nEsySU8p-318" vertex="1">
          <mxGeometry x="2300" y="1110.75" width="25" height="25" as="geometry" />
        </mxCell>
        <mxCell id="ZkvdCX0CWbvOf_RxFRPi-12" value="&lt;font color=&quot;#fcfcfc&quot;&gt;&lt;b&gt;10&lt;/b&gt;&lt;/font&gt;" style="ellipse;whiteSpace=wrap;html=1;aspect=fixed;fillColor=#66B2FF;" parent="P3zlHuA92NW-nEsySU8p-318" vertex="1">
          <mxGeometry x="2300" y="1050.75" width="25" height="25" as="geometry" />
        </mxCell>
        <mxCell id="ZkvdCX0CWbvOf_RxFRPi-13" value="&lt;b&gt;Amazon CloudWatch&lt;/b&gt; stores log files for the VPC flow traffic, visualizer pipeline step functions states, and Faregate Container processes." style="text;whiteSpace=wrap;html=1;" parent="P3zlHuA92NW-nEsySU8p-318" vertex="1">
          <mxGeometry x="2340" y="1042" width="500" height="48.75" as="geometry" />
        </mxCell>
        <mxCell id="GOVtCaqf3uZ5J7UGGhO3-4" value="&lt;span style=&quot;background-color: rgb(242, 242, 242);&quot;&gt;Construct Pipeline&lt;/span&gt;" style="text;html=1;align=center;verticalAlign=middle;resizable=0;points=[];autosize=1;strokeColor=none;fillColor=none;" parent="P3zlHuA92NW-nEsySU8p-318" vertex="1">
          <mxGeometry x="1726" y="728.88" width="115" height="26" as="geometry" />
        </mxCell>
        <mxCell id="GOVtCaqf3uZ5J7UGGhO3-11" value="&lt;font color=&quot;#fcfcfc&quot;&gt;&lt;b&gt;12&lt;/b&gt;&lt;/font&gt;" style="ellipse;whiteSpace=wrap;html=1;aspect=fixed;fillColor=#66B2FF;" parent="P3zlHuA92NW-nEsySU8p-318" vertex="1">
          <mxGeometry x="1794" y="1245" width="25" height="25" as="geometry" />
        </mxCell>
        <mxCell id="GOVtCaqf3uZ5J7UGGhO3-13" value="&lt;b&gt;Amazon EFS&lt;/b&gt; is an optional component for managing container stage shared temporary files instead of using&amp;nbsp;&lt;b&gt;Amazon S3 &lt;/b&gt;when working with very large file conversions." style="text;whiteSpace=wrap;html=1;" parent="P3zlHuA92NW-nEsySU8p-318" vertex="1">
          <mxGeometry x="2339" y="1162.75" width="500" height="39.5" as="geometry" />
        </mxCell>
        <mxCell id="GOVtCaqf3uZ5J7UGGhO3-12" value="&lt;font color=&quot;#fcfcfc&quot;&gt;&lt;b&gt;12&lt;/b&gt;&lt;/font&gt;" style="ellipse;whiteSpace=wrap;html=1;aspect=fixed;fillColor=#66B2FF;" parent="P3zlHuA92NW-nEsySU8p-318" vertex="1">
          <mxGeometry x="2301" y="1170" width="25" height="25" as="geometry" />
        </mxCell>
      </root>
    </mxGraphModel>
  </diagram>
</mxfile>
